<svg width="35" height="35" viewBox="0 0 29 28" xmlns="http://www.w3.org/2000/svg">
  <path d="M15.0625 7.06543L15.0625 1.06543L18.0625 0.565431C20.548 1.60217 21.0844 2.52614 21.0625 4.56543L21.0625 9.06543L25.5625 9.06543C29.0625 9.56543 30.0625 20.0654 24.5625 22.5654L16.5625 22.5654C13.0183 22.1761 11.255 21.4881 8.5625 19.5654L8.5625 13.0654C11.7499 11.303 13.1244 9.9449 15.0625 7.06543Z" stroke="black"/>
  <path d="M8.0625 11.0654L8.0625 5.06543L11.0625 4.56543C13.548 5.60217 14.0844 6.52614 14.0625 8.56543L14.0625 13.0654L18.5625 13.0654C22.0625 13.5654 23.0625 24.0654 17.5625 26.5654L9.5625 26.5654C6.01831 26.1761 4.25501 25.4881 1.5625 23.5654L1.5625 17.0654C4.74993 15.303 6.12441 13.9449 8.0625 11.0654Z" stroke="black" stroke-width="1" stroke-linecap="round"/>
</svg>
